/* XPM */
static char * pngwing_com (4)_XPM[] = {
"50 50 217 2",
"  	c #326C98",
". 	c #FBF7F2",
"+ 	c #FCFBF8",
"@ 	c #F6ECE4",
"# 	c #F6E7D9",
"$ 	c #F7E4D3",
"% 	c #FAE2C4",
"& 	c #F7E9DD",
"* 	c #FCF4EC",
"= 	c #F6D0A4",
"- 	c #F6DABC",
"; 	c #F7E1CC",
"> 	c #EFBF8A",
", 	c #F5C58D",
"' 	c #FAD9B5",
") 	c #FCF1E6",
"! 	c #F5BB72",
"~ 	c #F9CD99",
"{ 	c #FBD2A4",
"] 	c #F9E6D2",
"^ 	c #FAEDE2",
"/ 	c #FAB35C",
"( 	c #F8C078",
"_ 	c #F9CA94",
": 	c #FAE3CC",
"< 	c #FBEBDC",
"[ 	c #FAA23C",
"} 	c #FBB352",
"| 	c #FCF9F4",
"1 	c #FD9915",
"2 	c #FAAB3C",
"3 	c #FBC37C",
"4 	c #FB8B03",
"5 	c #FCA320",
"6 	c #F57A2A",
"7 	c #FA8403",
"8 	c #FC9716",
"9 	c #FBBC6B",
"0 	c #F57818",
"a 	c #FB7C03",
"b 	c #FA9A29",
"c 	c #FBB663",
"d 	c #F46E15",
"e 	c #FB7303",
"f 	c #F8B965",
"g 	c #F49E53",
"h 	c #F56A1B",
"i 	c #FB6302",
"j 	c #FA8F1C",
"k 	c #F78C26",
"l 	c #F16920",
"m 	c #FB770C",
"n 	c #FA5D03",
"o 	c #F4BC7A",
"p 	c #F97A09",
"q 	c #F95706",
"r 	c #F27834",
"s 	c #F6D4B1",
"t 	c #F9DBBB",
"u 	c #F9C78B",
"v 	c #FBB047",
"w 	c #FBA135",
"x 	c #FA860F",
"y 	c #FB6C03",
"z 	c #FA690C",
"A 	c #F5B976",
"B 	c #F99738",
"C 	c #FCAD4C",
"D 	c #F9991B",
"E 	c #F35714",
"F 	c #FAC584",
"G 	c #FBA860",
"H 	c #F89727",
"I 	c #FB4403",
"J 	c #F54B14",
"K 	c #FC9303",
"L 	c #FA4B03",
"M 	c #FA3D03",
"N 	c #F6B189",
"O 	c #FBD6BB",
"P 	c #FBCB8B",
"Q 	c #F13203",
"R 	c #EA1B03",
"S 	c #F22C03",
"T 	c #EB6225",
"U 	c #F9DEC3",
"V 	c #F53B04",
"W 	c #F24305",
"X 	c #EB3C02",
"Y 	c #EA1504",
"Z 	c #E21303",
"` 	c #E42503",
" .	c #EA0D03",
"..	c #F83808",
"+.	c #EB4C03",
"@.	c #E95207",
"#.	c #E86B34",
"$.	c #EB2404",
"%.	c #DC1C03",
"&.	c #E31C03",
"*.	c #DD0D03",
"=.	c #DC2302",
"-.	c #E63402",
";.	c #EC4403",
">.	c #F3520A",
",.	c #F17E52",
"'.	c #FAA21A",
").	c #FC9C0B",
"!.	c #DB3303",
"~.	c #DE3B03",
"{.	c #DB1404",
"].	c #DA2803",
"^.	c #D51A03",
"/.	c #E40C03",
"(.	c #F31A04",
"_.	c #E93402",
":.	c #F26B32",
"<.	c #F2A363",
"[.	c #FCAD42",
"}.	c #F68A04",
"|.	c #F35503",
"1.	c #E45903",
"2.	c #D54F04",
"3.	c #DC4302",
"4.	c #E53802",
"5.	c #E42A03",
"6.	c #DB0302",
"7.	c #ED0402",
"8.	c #F31305",
"9.	c #F25E21",
"0.	c #FC940C",
"a.	c #E64705",
"b.	c #ED5C03",
"c.	c #FA1804",
"d.	c #F42403",
"e.	c #F34C0E",
"f.	c #F7C88F",
"g.	c #F4AE52",
"h.	c #EB2C02",
"i.	c #F14B03",
"j.	c #F45C03",
"k.	c #EC7318",
"l.	c #D61404",
"m.	c #F08049",
"n.	c #F4C385",
"o.	c #F46213",
"p.	c #E86B19",
"q.	c #D40C03",
"r.	c #FAD6AD",
"s.	c #F78C0B",
"t.	c #F67402",
"u.	c #F67C02",
"v.	c #EE7C09",
"w.	c #ED7016",
"x.	c #ED5104",
"y.	c #F6DCC5",
"z.	c #F4D1AB",
"A.	c #EC6A0D",
"B.	c #F30402",
"C.	c #F9A856",
"D.	c #FBD196",
"E.	c #F4D7BA",
"F.	c #F5A535",
"G.	c #F66C02",
"H.	c #F68203",
"I.	c #F46B0D",
"J.	c #E40302",
"K.	c #FCB74A",
"L.	c #F3A746",
"M.	c #F5AD4C",
"N.	c #F79E24",
"O.	c #F66402",
"P.	c #EB8935",
"Q.	c #EC9539",
"R.	c #CD0203",
"S.	c #D20302",
"T.	c #FAB95C",
"U.	c #F3C895",
"V.	c #CA0B04",
"W.	c #F20B03",
"X.	c #FA8C0A",
"Y.	c #EF650D",
"Z.	c #CA2403",
"`.	c #B40309",
" +	c #FB9923",
".+	c #C81903",
"++	c #D25813",
"@+	c #F7BA6A",
"#+	c #FDF1DF",
"$+	c #FCDAA1",
"%+	c #D73705",
"&+	c #3E281B",
"*+	c #FCE0B5",
"=+	c #D62B02",
"-+	c #BC1403",
";+	c #E28D1F",
">+	c #E0C19C",
",+	c #FDF9EA",
"'+	c #FCC06C",
")+	c #EF8103",
"!+	c #CC3402",
"~+	c #FBA20D",
"{+	c #0F0202",
"]+	c #C3610F",
"^+	c #F58A1B",
"/+	c #B87C54",
"(+	c #C29364",
"_+	c #F4A754",
":+	c #F3A54B",
"<+	c #F19A3A",
"[+	c #F09E46",
"}+	c #F9B66D",
"|+	c #E65210",
"1+	c #ED9C56",
"2+	c #EA752E",
"3+	c #E88129",
"4+	c #EFAA58",
"                                                                                                    ",
"                                                                                                    ",
". +                                                                                                 ",
"@ @ . +                                                                                             ",
"# $ @ . + +                                                                                         ",
"  % $ & * .                                                                                         ",
"  = - ; & * *                                                                                       ",
"  > , ' # ) * +                                                                                     ",
"    ! ~ { ] ^ @                                                                                     ",
"      / ( _ : < . +                                                                                 ",
"        [ } _ % ) * |                                                                               ",
"          1 2 3 % < | *                                                                             ",
"            4 5 3 : ) ^ |                                                                           ",
"            6 7 8 9 % < *                                                                           ",
"              0 a b c ' ^                                                                           ",
">               d e 7 f '                                                                           ",
"  g               h i a c                                                                           ",
"    j k             l i m                       )                                                   ",
"    k a 7 0             n 6                   . < _ o                                               ",
"      k a a e p           q r         * * s s s t u v w                                             ",
"      : x 7 e e y y z       h 6       < < u A [ B C D 7 y E                                         ",
"      ) F 4 a y e e i y i z   G n 6 ^ ] ' f H 2 x e a a e I J                                       ",
"      | ] / a K e i y e e e y i L M J N O P B y L Q R R S I I T                                     ",
"        * U c 4 a e y e e e e a a e I V W X Y Y R Z ` Z Z Z  ...+.@.#.                              ",
"          ) ~ o j a 7 e e a 4 7 4 4 i n q $.%.&.*.&.%.=.=.%.Z  .M -.;.>.,.                          ",
"            . % c 1 '.).4 4 7 4 4 K 4 n !.~.~.=.*.*.{.=.].=.^./.(.S X _.+.:.<.                  + + ",
"              . ' u P [.D }.4 7 7 4 K e |.1.2.3.4.` 5.{.!.!.].` 6.7.8._.X W 9.r             + + | | ",
"                * ' o 2 1 0.0.K K 4 4 a L >.=.a.b.+.+.` {.].=.^.&.7.c.d.` X e.E r       + | . * ) @ ",
"                    : ' f.g.).K K 7 a 7 a h.W a i.j.k.;.=.^.^.l.*.d.d.d.h.5.h.e.e.m.  . . ) ] ; : : ",
"                    * ] { n.! 5 4 7 a 7 7 i o.j.p.    p._.{.l.q.%.%.d.I Q &.` R W E   @ < % ; U r.r.",
"                    * @ $ n.).2 s.7 t.u.a j.v.        w.x.%.q.q.^.=.=.(.(.&. . . .e.h t t ' ~ 3 9 _ ",
"                    ) y.z.! g.u.7 t.t.7 y |.          A.x.=.{.l.^.^.{.$.B.8.B././.].-.C.D.~ 3 [.v o ",
"                  | ^ y.E.g.}.F.G.H.t.G.j.I.          k.;._.^.%.l.q.6.J.B.7.6.l.l./.-.>.P c K.b L.  ",
"                  * # z.o M.N.u.H.u.G.O.j.P.          Q.b.-.=.%.R.R.S.S.J.8.(.6.Y 6.Z e.9 T.D j     ",
"                * # y.U., F.}.s.H.G.O.|.O.              A.x.` l.{.R.V.V.8.W.W.7.6.*.%.X k X.x       ",
"              | * $ E.z.g.N.}.H.G.j.j.|.                <.Y.$.q.Z.l.`.*./.7.W.8.6.Z {.3.h L.        ",
"              | & & z.n.M. +H.y G.O.|.P.              ) % C.X ].Z..+R.q.6. ./.6.6.$.h..+++          ",
"            + | @ y.z., @+'.t.t.G.O.w.              #+] $+3 a X %+.+^.S.q.S.&.$.*./.&.&.&+          ",
"            | ) < U ' ! v u.a t.O.A.            | #+*+{ } C j |.3.=+-+V.{.R 6.&.R 6.7.V ;+>+        ",
"          + . ^ % ' @+T.7 u.u.t.I.            * ,+*+P '+H  +s.)+@.3.!+].(.7.6.J./.J./.W.a.          ",
"          | ) ] , ( [.K H.a t.0               < *+D.'+C  +H.t.t.v.1.=+!+%+M J.J.Z Z R 5.V           ",
"    | ) ) < s n.n.'.~+7 H.u.                    *+P } 5 a y y G.j.@.1.{+]+M {./.&.$.h.h.I           ",
"  * ^ U ' z.@+o M.5 }.}.^+                      ,+*+'+w X.m m m Q.    /+(+%+=.%.h.h.h._.6           ",
"        A _+:+:+<+<+                            ) U z.U [+}+k Q.          |+-.5.5.=.-.j.            ",
"                                                ^ U y.! { g.<+              1+2+x.Y.3+              ",
"                                              | ^ $ r.O }+4+                                        ",
"                                              . ^ y.: { n.                                          ",
"                                              . ) < U                                               ",
"                                                * <                                                 ",
"                                                                                                    "};
