/* XPM */
static char * exit_XPM[] = {
"50 50 53 1",
" 	c #326C98",
".	c #595959",
"+	c #6E6E6C",
"@	c #282828",
"#	c #535353",
"$	c #4D4D4D",
"%	c #2D2D2D",
"&	c #747474",
"*	c #5D5D5D",
"=	c #3A3A3A",
"-	c #474747",
";	c #151515",
">	c #202020",
",	c #262626",
"'	c #707070",
")	c #696969",
"!	c #1C1C1C",
"~	c #0A0A0A",
"{	c #1E1E1E",
"]	c #070707",
"^	c #383838",
"/	c #3F3F3F",
"(	c #222222",
"_	c #121212",
":	c #626262",
"<	c #484848",
"[	c #0F0F0E",
"}	c #010101",
"|	c #303030",
"1	c #444444",
"2	c #404040",
"3	c #575757",
"4	c #0F0F0F",
"5	c #1B1A1B",
"6	c #373737",
"7	c #1A1A1A",
"8	c #080808",
"9	c #020203",
"0	c #141414",
"a	c #232323",
"b	c #0C0A0C",
"c	c #434343",
"d	c #676767",
"e	c #545454",
"f	c #181818",
"g	c #242424",
"h	c #0B0B0B",
"i	c #4B4B4B",
"j	c #2B2B2B",
"k	c #343434",
"l	c #5E5C5E",
"m	c #737373",
"n	c #6F6F6F",
"                                                  ",
"                                                  ",
"                                                  ",
"                                                  ",
"                                                  ",
"                                                  ",
"                      .+@                         ",
"                      #  #$                       ",
"                 .%&  *%=-.                       ",
"                 ;>,-')!;~,                       ",
"                 {],^>/(,]_~]{/  :)               ",
"               <:[}({{*$;}~}]]|- $-/,             ",
"              )-#_}%]_;_~}]]][1+  2/;3+           ",
"             ,<=(}}~}}}}}}};4[(566@775.*          ",
"           ){/~]}}}}}}}}}}}}}}}8799;~0{|          ",
"           -~]]}}}}}}}}}}}}}}}]9}}}]~[;(          ",
"         # <,]]}}}}}}}}}}}}}}}}}}}}}]({{@         ",
"        '$%6;_;_}}}}}}}}}}}}}}}}}}}}~;=a)         ",
"         76{_~}}}}}}}}}}}}}}}}}}}}}}};77$         ",
"       2 %_}}}}}}}}}}}}}}}}}}}}}}}}}]}~};         ",
"         /[[}}}}}}}}}}}}}}}}}}}}}}}}}}}}]#.       ",
"         +{b}}}}}}}}}}}}}}}}}}}}}}}}}}}[# .:      ",
"           @}}}}}}}}}}}}}}}}}}}}}}}}}}]}%         ",
"         :%]}}}}}}}}}}}}}}}}}}}}}}}}}}}}(         ",
"      < <c88[}}}}}}}}}}}}}}}}}}}}}}}}}~}'         ",
"     .. -(b9[;4}}}}}}}}}}}}}}}}}}}}}}}]| <        ",
"         8]}}9}}}}}}}}}}}}}}}}}}}}}}}}}}[|        ",
"         @78}}}}}}}}}}}}}}}}}}}}}}}}}}}}0,        ",
"        +#<0}}}}}}}}}}}}}}}}}}}}}}}}}}}~_0#       ",
"        +@%~}}}}}}}}}}}}}}}}}}}}}}}}}}}}_7+d      ",
"         /{]}}}}}}}}}}}}}}}}}}}}}}}}]~9}_d  .     ",
"         -%}}}}}}}}}}}}}}}}}}}}}}}}}[__;e.        ",
"          =~~_}}}}}}}}}}}}}}}}}}}}}}~0_,_=        ",
"          <-f}}}}}}}}}}}}}}}}}}}}}]7~_e-          ",
"             2}__}}}}}}}}}}}}}}}}}~~4g-2          ",
"             d}~(}}}}}}}}}}}}}}}}}]/[==           ",
"             6_,b]}}}}}}}}}}}}}}};@|{,)           ",
"              e:~]h[~}}}}}}}}}}}~<e,i             ",
"               -_jk0f[[}]]}~}}7{(                 ",
"               #,{,% $<2_d- ,~<6%-                ",
"               )<6@- :& +   l6  .                 ",
"               '  : 2   d                         ",
"                           d                      ",
"                        :m>@+                     ",
"                        n<e {                     ",
"                         e  ,:                    ",
"                                                  ",
"                                                  ",
"                                                  ",
"                                                  "};
