/* XPM */
static char * pngwing_com_XPM[] = {
"50 50 143 2",
"  	c #326C98",
". 	c #77787A",
"+ 	c #BEC0C2",
"@ 	c #B5B6B8",
"# 	c #8D8F90",
"$ 	c #6C6D6F",
"% 	c #919294",
"& 	c #7D7F82",
"* 	c #B6B8BA",
"= 	c #97999B",
"- 	c #7B7C7E",
"; 	c #B2B3B5",
"> 	c #A4A5A7",
", 	c #67696B",
"' 	c #A1A2A4",
") 	c #727375",
"! 	c #95979A",
"~ 	c #606163",
"{ 	c #949597",
"] 	c #B7B9BB",
"^ 	c #67686A",
"/ 	c #9D9EA0",
"( 	c #96989B",
"_ 	c #818386",
": 	c #57585A",
"< 	c #AEB0B2",
"[ 	c #A3A4A6",
"} 	c #97999C",
"| 	c #898B8E",
"1 	c #6D6F71",
"2 	c #626466",
"3 	c #78797C",
"4 	c #D2D3D5",
"5 	c #A0A2A5",
"6 	c #7D8082",
"7 	c #747678",
"8 	c #6E7072",
"9 	c #5F5F61",
"0 	c #CDCFD0",
"a 	c #ACAEB0",
"b 	c #919394",
"c 	c #626365",
"d 	c #58585A",
"e 	c #C7C9CB",
"f 	c #A6ABAF",
"g 	c #87898B",
"h 	c #5E6468",
"i 	c #CBCCCE",
"j 	c #696A6C",
"k 	c #808183",
"l 	c #A4A7AA",
"m 	c #828486",
"n 	c #D5D7D8",
"o 	c #919599",
"p 	c #737477",
"q 	c #565759",
"r 	c #D0D1D2",
"s 	c #45C8F5",
"t 	c #44C8F6",
"u 	c #535355",
"v 	c #A9ABAD",
"w 	c #73C3E9",
"x 	c #82D7F8",
"y 	c #7CD6F8",
"z 	c #B0E4FA",
"A 	c #49C9F5",
"B 	c #70D4F7",
"C 	c #8BDBF9",
"D 	c #A1E1FA",
"E 	c #AEE5FA",
"F 	c #88D8F6",
"G 	c #87CCE8",
"H 	c #B2B5B8",
"I 	c #8B9095",
"J 	c #74797C",
"K 	c #6F7173",
"L 	c #61A7C9",
"M 	c #94D6F5",
"N 	c #95DDF9",
"O 	c #51CBF6",
"P 	c #AEE2FA",
"Q 	c #6DD1F7",
"R 	c #78D5F7",
"S 	c #B9E8FB",
"T 	c #5DCDF6",
"U 	c #87D9F8",
"V 	c #C6EBFA",
"W 	c #CBECFC",
"X 	c #B3E6FA",
"Y 	c #A9E2FA",
"Z 	c #7BCDF1",
"` 	c #6EC2EB",
" .	c #5EBFEA",
"..	c #6CC2EB",
"+.	c #5287A2",
"@.	c #6B8898",
"#.	c #7D96A4",
"$.	c #627A87",
"%.	c #91989E",
"&.	c #777D81",
"*.	c #6B7880",
"=.	c #677177",
"-.	c #5A7583",
";.	c #3D7E9E",
">.	c #2090C5",
",.	c #62BFEA",
"'.	c #A1DFF9",
").	c #72D3F7",
"!.	c #74D3F7",
"~.	c #6ED2F7",
"{.	c #5CCEF6",
"].	c #77D5F7",
"^.	c #79D6F8",
"/.	c #7ED8F8",
"(.	c #96DAF7",
"_.	c #9DDCF7",
":.	c #95DAF7",
"<.	c #98DCF9",
"[.	c #8FDAF8",
"}.	c #68D1F7",
"|.	c #63CFF6",
"1.	c #5ACDF6",
"2.	c #93DDF9",
"3.	c #DBF2FD",
"4.	c #44C8F4",
"5.	c #B7E7FB",
"6.	c #CBEDFC",
"7.	c #9EE0F9",
"8.	c #B4E6FB",
"9.	c #B0E3FA",
"0.	c #B5E5FB",
"a.	c #B9E6FB",
"b.	c #A4E1FA",
"c.	c #61D0F6",
"d.	c #A7E3FA",
"e.	c #C1EAFB",
"f.	c #DCF2FD",
"g.	c #E1F4FD",
"h.	c #D5F0FC",
"i.	c #C2E9FB",
"j.	c #A7E0F9",
"k.	c #BDE8FB",
"l.	c #D1EEFC",
"                                                                                                    ",
"                                                                                                    ",
"                                                                                                    ",
"                                                                                                    ",
"                                                                                                    ",
"                                                                                                    ",
"                                                                                                    ",
"                                                                                                    ",
"                                                                                                    ",
"                                                                                                    ",
"                                                                                                    ",
"                                                                                                    ",
"                                                                                                    ",
"                                                                                                    ",
"                                                                                                    ",
"                                                                                                    ",
"                                                                                                    ",
"                                      . + @ # $ %                                                   ",
"                                        & * = - ; > , '                                             ",
"                                          ) * ! - ~ { ] ^                                           ",
"                                            / ( _ & , : < [ $                                       ",
"                                            ) } ( | & 1 2 3 4 ~                                     ",
"                                            { 5 ( ! 6 7 8 , 9 0 $                                   ",
"                                              a ( b | _ & ) c d e )                                 ",
"                                            % f ( ( ( g 6 6 h , : i j                               ",
"                                            k l ( ( ( ( m 6 j $ : 9 n ~                             ",
"                                            b o ( ( ( ( % k . p 8 q . r 1                           ",
"                              s t t       c f ! ( ( ( ( _ & & - 8 d u v | w x y x y z               ",
"                  s s A B C D E E F F G c H I ( = b # _ & & 6 J 8 K u q L M N O P Q R S             ",
"            T U V W S X Y Z `  .....+.@.#.$.%.%.o # m & &.*.7 =.-.;.>.,.'.).!.P N ~.~.              ",
"                          A {.].^./.U y ^.R x F (.'._.(.:.<.[./.}.|.T !.(.[.Q 1.2.3.                ",
"                    s 4.      5.^.6._.C 7.8.8.z P P 9.9.0.a.0.b.^.c./.d.e.0.W f.                    ",
"                                          g.f.h.i.9.8.8.9.Y j.Y P k.l.f.                            ",
"                                                                                                    ",
"                                                                                                    ",
"                                                                                                    ",
"                                                                                                    ",
"                                                                                                    ",
"                                                                                                    ",
"                                                                                                    ",
"                                                                                                    ",
"                                                                                                    ",
"                                                                                                    ",
"                                                                                                    ",
"                                                                                                    ",
"                                                                                                    ",
"                                                                                                    ",
"                                                                                                    ",
"                                                                                                    ",
"                                                                                                    "};
