/* XPM */
static char * pngwing_com (2)_XPM[] = {
"50 50 115 2",
"  	c #326C98",
". 	c #A1DC6C",
"+ 	c #9FD86C",
"@ 	c #D5FD83",
"# 	c #A6DF70",
"$ 	c #8DC755",
"% 	c #CAF779",
"& 	c #92CD5B",
"* 	c #C5F572",
"= 	c #9FEA5F",
"- 	c #A2EC62",
"; 	c #CDFA7B",
"> 	c #92DC52",
", 	c #7ABC3E",
"' 	c #9BE55C",
") 	c #9FD56B",
"! 	c #73AC3A",
"~ 	c #CFFB80",
"{ 	c #6EA53C",
"] 	c #97DC5A",
"^ 	c #77B440",
"/ 	c #7AAD45",
"( 	c #75B13C",
"_ 	c #81BE4A",
": 	c #7DBA44",
"< 	c #98E557",
"[ 	c #CBF975",
"} 	c #89D546",
"| 	c #C9F575",
"1 	c #82BC44",
"2 	c #7CC43B",
"3 	c #94E051",
"4 	c #BDEE68",
"5 	c #8DDA4B",
"6 	c #91DD4E",
"7 	c #D0FB7B",
"8 	c #B8E95F",
"9 	c #AEDC59",
"0 	c #8BD54A",
"a 	c #B3E45C",
"b 	c #7AB543",
"c 	c #81C345",
"d 	c #86D243",
"e 	c #C3F36D",
"f 	c #86CC48",
"g 	c #BAEC65",
"h 	c #6FAB35",
"i 	c #7DB24A",
"j 	c #70A63B",
"k 	c #78AE48",
"l 	c #C7F972",
"m 	c #AEE057",
"n 	c #ABDC53",
"o 	c #93B694",
"p 	c #BEF069",
"q 	c #8AB48C",
"r 	c #D4F48D",
"s 	c #DEFE8C",
"t 	c #75AC42",
"u 	c #C2E973",
"v 	c #81CC3D",
"w 	c #B1DB62",
"x 	c #A6D452",
"y 	c #A9D754",
"z 	c #76BC39",
"A 	c #8BC44B",
"B 	c #95C654",
"C 	c #A0CB56",
"D 	c #A7D850",
"E 	c #7ECA3B",
"F 	c #629631",
"G 	c #6AA236",
"H 	c #A0CE4E",
"I 	c #B5E561",
"J 	c #6C9F3B",
"K 	c #8FB846",
"L 	c #85D03F",
"M 	c #70AC37",
"N 	c #73A743",
"O 	c #8BB346",
"P 	c #B3F974",
"Q 	c #A6F069",
"R 	c #85B043",
"S 	c #AFF571",
"T 	c #83CE42",
"U 	c #93D353",
"V 	c #85C14C",
"W 	c #84AE41",
"X 	c #A5D359",
"Y 	c #8CCE4C",
"Z 	c #9CC850",
"` 	c #B1F772",
" .	c #AFF86E",
"..	c #ADF56C",
"+.	c #79C536",
"@.	c #AFE159",
"#.	c #9AC652",
"$.	c #A6F164",
"%.	c #77C232",
"&.	c #D9FD84",
"*.	c #79A03E",
"=.	c #B0DD5E",
"-.	c #B0F76E",
";.	c #7BC837",
">.	c #A5D44E",
",.	c #99D553",
"'.	c #80C43E",
").	c #A4DC5B",
"!.	c #96D04D",
"~.	c #71BC2E",
"{.	c #9DCA43",
"].	c #66AE20",
"^.	c #9AC745",
"/.	c #67A62A",
"(.	c #75BE32",
"                                          .                                                         ",
"                                        .                                                           ",
"                                      +                                                             ",
"                                    .                             @ @                               ",
"                                  # $                             % %                               ",
"                                  &                                   *                             ",
"              =               . .                                     %                             ",
"                    -       . $ $                                     ;                             ",
"                      > -   + , ,                                     ;                             ",
"                          ' ) ! !                                     ~                             ",
"                          { - ] ]                                     ; ~                           ",
"                          ^ / > > '                                   ; ;                           ",
"                          ( _ : : < '                                 % [                           ",
"                          ( _ / / } <                                 % |                           ",
"                          ^ : 1 1 2 3 >                               [ 4                           ",
"                          ^ , _ _ : 5 6                           | | 7 8 9                         ",
"                          ^ , : : : 5 6 0                         | | [ a                           ",
"                            ( b b c 0 6 d                       % * * e a                           ",
"                            ! ( ( f 5 6 }                       e [ [ g a                           ",
"o                             h h f 5 6 d i i                 | e e e 8 9                           ",
"o                             h h 0 5 > } j j k             7 e l g g m n                           ",
"  q                               0 > 6 0 j j j _         7 e e p m m n                             ",
"  q r s s                         } 3 6 d t t ! : $   u u e e p m n n                               ",
"    4 4 s @                   > > } 6 } v j j t 1 _ & w w e e a n x x                               ",
"    y y * 7 *                 0 0 5 5 v z { { / A 1 _ B B C 9 n D                                   ",
"        a ; e               > } } 6 } E F G G t _ , ! : : H D                                       ",
"        I l 4 4             } } } 5 v 2 J G G ^ _ : ( ! ! K H                                       ",
"        I e 4 I           > L 0 0 } v   { G G ^ : b ( M M K                                         ",
"        I e p a           } L 5 5 d v   N ^ ^ b _ _ ^ M M O                                         ",
"        g e e a           v L 0 0 } v   k : : ^ _ _ ( M M                                         P ",
"        g e 4 a         0 v L } } } v   / : : : _ : ! M M                                         Q ",
"        g * 4 I         0 d d 0 0 } }   i _ _ 1 _ , ! R R                                       S   ",
"        4 e p I         T d d 5 5 } 0 U i : : V _ ( j B B                                   P P 6   ",
"        g p p g           d d 5 5 } 0 5 t : : V ^ ( W X X g                               P 5 5     ",
"        a g p p           T d d d 5 d d Y b b : ( M Z I I g                         ` P  .5 2 2     ",
"        a a p p e e       2 E d d 5 } d 0 b b ( M O I g g I 4               P ...... ...} +.        ",
"          @.a p e e %       E T T d 5 } d 6 6 G M #.p 4 4 8 4     P P `  . . . .$.$.> E %.          ",
"          y @.a e e [ 7 &.    2 2 d d 6 } d d U *.x p e e g =.-... . ...@.6 d E E E +.+.            ",
"            x n a a p ; 7 &.s     z v d 6 } } } Y X g e e w $.$.- 6 6 L E v L E ;.;.;.              ",
"                D D m m 4 ; @ @ @ @ Y 2 d 5 5 } > X I w w ' < 3 } v v 2 2                           ",
"                    >.>.n m a e e l l ] , 5 5 5 } ,.X X X 6 6 d E                                   ",
"                          x n m m g l l ,.z z 0 } d C U U 5 5 v '.                                  ",
"                              D D m a p l '.'.'.0 d #.0 0 5 } 2                                     ",
"                                    D @.p * * z d } Y f f 5 d v                                     ",
"                                      >.@.4 4 ).+.L A f f 5 d v                                     ",
"                                        H a a g z v A 0 0 5 d v                                     ",
"                                          y y a !.+.1 6 6 0 E ;.                                    ",
"                                              >.y ~.'.0 0 E +.                                      ",
"                                                {.].T +.+.%.                                        ",
"                                                ^./.(.(.(.                                          "};
